<svg id="Capa_1" data-name="Capa 1" xmlns="http://www.w3.org/2000/svg" viewBox="0 0 168.59 50"><defs><style>.cls-1{fill:#fff;}</style></defs><title>logo</title><path class="cls-1" d="M6,45.94V41.34H49v4.59Z"/><path class="cls-1" d="M18.78,19.91,6.6,4.7h9.67L26.82,18.87V4.7H35V36.14H26.82V21.46L16.39,36.14H6Z"/><path class="cls-1" d="M49,36.14H40.79V4.7H49Z"/><path class="cls-1" d="M74.72,4.7,58.06,32.84H73.74v3.3H52.27L69,8H54.15V4.7Z"/><path class="cls-1" d="M100,24.37q0,6.29-2.72,9.35T89,36.78q-5.52,0-8.28-3.1t-2.76-9.31V4.7h3.5V25.08q0,4.24,1.86,6.31T89,33.48q3.83,0,5.67-2.06t1.84-6.33V4.7H100Z"/><path class="cls-1" d="M123.05,27.75a8.56,8.56,0,0,1-2.61,6.61,10.09,10.09,0,0,1-7.13,2.41,10.24,10.24,0,0,1-5.45-1.43,8.26,8.26,0,0,1-3.39-4L107,29.26a6,6,0,0,0,2.45,3.1,7.27,7.27,0,0,0,4,1.12A6.42,6.42,0,0,0,117.93,32a5.29,5.29,0,0,0,1.62-4.13,5.32,5.32,0,0,0-1.5-3.76,17.72,17.72,0,0,0-5-3.33,18.13,18.13,0,0,1-5.81-4,7.43,7.43,0,0,1-1.64-4.95,7.22,7.22,0,0,1,2.36-5.62A10,10,0,0,1,118.35,5a8.17,8.17,0,0,1,3,2.78L119,10a4.81,4.81,0,0,0-2-1.94,6.26,6.26,0,0,0-3-.69,5.31,5.31,0,0,0-3.63,1.16,4,4,0,0,0-1.32,3.14,4.58,4.58,0,0,0,1,3,14.09,14.09,0,0,0,4,2.83l.18.08Q123.05,22.31,123.05,27.75Z"/><path class="cls-1" d="M152.34,36.14h-3.52V20.87H132.56V36.14h-3.5V4.7h3.5V17.59h16.25V4.7h3.52Z"/><path class="cls-1" d="M162.59,36.14h-3.5V4.7h3.5Z"/></svg>